# xmcd CD database file
#
# Track frame offsets:
#	150
#	40604
#	56153
#	73764
#	92366
#	113033
#	129151
#	159985
#	180242
#	196710
#	201196
#	214550
#	226275
#
# Disc length: 3136 seconds
#
# Revision: 1
# Processed by: cddbd v1.5.2PL0 Copyright (c) Steve Scherf et al.
# Submitted via: CDex 1.51
#
DISCID=9e0c3e0d
DTITLE=Muzio Clementi - Duos et petits duos pour deux pianos
DYEAR=1900
DGENRE=Classique
TTITLE0=Duo N°1, Op.14 - I. Allegro       [Pietro Spada and Giorgio Cozzolino, piano]
TTITLE1=Duo N°1, Op.14 - II. Adagio
TTITLE2=Duo N°1, Op.14 - III. Allegro
TTITLE3=Duo N°2, Op.14 - I. Allegro
TTITLE4=Duo N°2, Op.14 - II. Allegro assai
TTITLE5=Duo N°3, Op.14 - I. Allegro
TTITLE6=Duo N°3, Op.14 - II. Adagio
TTITLE7=Duo N°3, Op.14 - III. Rondo (allegro)
TTITLE8=Duettino WO.25 - I. Allegro vivace   [Pietro Spada and George Darden, piano]
TTITLE9=Duettino WO.25 - II. Mazurka - Andante con moto
TTITLE10=Duettino WO.26
TTITLE11=Duettino WO.27
TTITLE12=Duettino WO.86
EXTD=
EXTT0=
EXTT1=
EXTT2=
EXTT3=
EXTT4=
EXTT5=
EXTT6=
EXTT7=
EXTT8=
EXTT9=
EXTT10=
EXTT11=
EXTT12=
PLAYORDER=
